<svg width="600" height="414" xmlns="http://www.w3.org/2000/svg"> <rect width="100%" height="100%" fill="#FEFEFE" />
<line x1="70" y1="274" x2="530" y2="274" stroke="#9f9f9f" stroke-width="1" />
<rect x="70" y="109" width="460" height="165" fill="#FEFEFE" />
<text text-anchor="middle" x="300.0" y="20" font-family="'Helvetica Neue', Arial, sans-serif" font-weight="bold" font-size="22" fill="#000000">Master&apos;s degrees awarded in Biological</text>
<text text-anchor="middle" x="300.0" y="42" font-family="'Helvetica Neue', Arial, sans-serif" font-weight="bold" font-size="22" fill="#000000">and biomedical sciences</text>
<text text-anchor="middle" x="300.0" y="64" font-family="'Helvetica Neue', Arial, sans-serif" font-size="14" fill="#000000">correlates with</text>
<text text-anchor="middle" x="300.0" y="90" font-family="'Helvetica Neue', Arial, sans-serif" font-weight="bold" font-size="22" fill="#ba0f27">Inflation in the US</text>
<text text-anchor="start" x="23" y="319.3333333333333" font-family="'Helvetica Neue', Arial, sans-serif" font-size="14" fill="#9f9f9f">Master&apos;s degrees conferred by postsecondary institutions in Biological and</text>
<text text-anchor="start" x="23" y="335.3333333333333" font-family="'Helvetica Neue', Arial, sans-serif" font-size="14" fill="#9f9f9f">biomedical sciences &#183; Source: National Center for Education Statistics</text>
<text text-anchor="start" x="23" y="358.66666666666663" font-family="'Helvetica Neue', Arial, sans-serif" font-size="14" fill="#9f9f9f">Consumer Price Index for Urban Consumers (CPI-U) in the United States &#183;</text>
<text text-anchor="start" x="23" y="374.66666666666663" font-family="'Helvetica Neue', Arial, sans-serif" font-size="14" fill="#9f9f9f">Source: Statista</text>
<text text-anchor="start" x="23" y="397.99999999999994" font-family="'Helvetica Neue', Arial, sans-serif" font-size="14" fill="#9f9f9f">2012-2021, r=0.970, r&#178;=0.940, p&lt;0.01  &#183;  tylervigen.com/spurious/correlation/17009</text>
<polyline points="5,314.66666666666663 20,314.66666666666663" style="fill:none;stroke:#000000;stroke-width:2.8" stroke-dasharray="3,1" />
<polygon points="1.7000000000000002,314.66666666666663 5,311.3666666666666 8.3,314.66666666666663 5,317.96666666666664" stroke="#F7F7F7" stroke-width="2.75" fill="#F7F7F7"  />
<polygon points="1.7000000000000002,314.66666666666663 5,311.3666666666666 8.3,314.66666666666663 5,317.96666666666664" stroke="#000000" stroke-width="2.75" fill="#000000"  />
<polyline points="5,353.99999999999994 20,353.99999999999994" style="fill:none;stroke:#ba0f27;stroke-width:2.8" />
<circle cx="5" cy="353.99999999999994" r="2.75" stroke="#F7F7F7" stroke-width="2.75" fill="#F7F7F7" />
<circle cx="5" cy="353.99999999999994" r="2.75" stroke="#ba0f27" stroke-width="2.75" fill="#ba0f27"  />
<text x="5" y="196.5" transform="rotate(270 5 191.5)" text-anchor="middle" fill="#000000" font-family="'Helvetica Neue', Arial, sans-serif" font-size="14" dominant-baseline="central">Degrees awarded</text>
<text x="191.5" y="-389" transform="rotate(90 100 100)" text-anchor="middle" fill="#ba0f27" font-family="'Helvetica Neue', Arial, sans-serif" font-size="14" dominant-baseline="central">CPI</text>
<line x1="71" y1="116.75" x2="528" y2="116.75" stroke="#F3F3F3" stroke-width="1" fill="#FEFEFE" />
<text text-anchor="end" x="62" y="121.41666666666667" font-family="'Helvetica Neue', Arial, sans-serif" font-size="12" fill="#000000">19.4K</text>
<text text-anchor="start" x="538" y="121.41666666666667" font-family="'Helvetica Neue', Arial, sans-serif" font-size="12" fill="#ba0f27">271.0</text>
<line x1="71" y1="154.125" x2="528" y2="154.125" stroke="#F3F3F3" stroke-width="1" fill="#FEFEFE" />
<text text-anchor="end" x="62" y="158.79166666666666" font-family="'Helvetica Neue', Arial, sans-serif" font-size="12">17.7K</text>
<text text-anchor="start" x="538" y="158.79166666666666" font-family="'Helvetica Neue', Arial, sans-serif" font-size="12" fill="#ba0f27">260.6</text>
<line x1="71" y1="191.5" x2="528" y2="191.5" stroke="#F3F3F3" stroke-width="1" fill="#FEFEFE" />
<text text-anchor="end" x="62" y="196.16666666666666" font-family="'Helvetica Neue', Arial, sans-serif" font-size="12">15.9K</text>
<text text-anchor="start" x="538" y="196.16666666666666" font-family="'Helvetica Neue', Arial, sans-serif" font-size="12" fill="#ba0f27">250.3</text>
<line x1="71" y1="228.875" x2="528" y2="228.875" stroke="#F3F3F3" stroke-width="1" fill="#FEFEFE" />
<text text-anchor="end" x="62" y="233.54166666666666" font-family="'Helvetica Neue', Arial, sans-serif" font-size="12">14.2K</text>
<text text-anchor="start" x="538" y="233.54166666666666" font-family="'Helvetica Neue', Arial, sans-serif" font-size="12" fill="#ba0f27">239.9</text>
<line x1="71" y1="266.25" x2="528" y2="266.25" stroke="#F3F3F3" stroke-width="1" fill="#FEFEFE" />
<text text-anchor="end" x="62" y="270.9166666666667" font-family="'Helvetica Neue', Arial, sans-serif" font-size="12">12.4K</text>
<text text-anchor="start" x="538" y="270.9166666666667" font-family="'Helvetica Neue', Arial, sans-serif" font-size="12" fill="#ba0f27">229.6</text>
<polyline points="77.75,274 77.75,280" style="fill:none;stroke:#000000;stroke-width:1" />
<polyline points="127.13888888888889,274 127.13888888888889,280" style="fill:none;stroke:#000000;stroke-width:1" />
<polyline points="176.52777777777777,274 176.52777777777777,280" style="fill:none;stroke:#000000;stroke-width:1" />
<polyline points="225.91666666666666,274 225.91666666666666,280" style="fill:none;stroke:#000000;stroke-width:1" />
<polyline points="275.30555555555554,274 275.30555555555554,280" style="fill:none;stroke:#000000;stroke-width:1" />
<polyline points="324.69444444444446,274 324.69444444444446,280" style="fill:none;stroke:#000000;stroke-width:1" />
<polyline points="374.0833333333333,274 374.0833333333333,280" style="fill:none;stroke:#000000;stroke-width:1" />
<polyline points="423.4722222222222,274 423.4722222222222,280" style="fill:none;stroke:#000000;stroke-width:1" />
<polyline points="472.8611111111111,274 472.8611111111111,280" style="fill:none;stroke:#000000;stroke-width:1" />
<polyline points="522.25,274 522.25,280" style="fill:none;stroke:#000000;stroke-width:1" />
<text text-anchor="middle" x="77.75" y="295" font-weight="bold" font-family="'Helvetica Neue', Arial, sans-serif" font-size="14">2012</text>
<text text-anchor="middle" x="127.13888888888889" y="295" font-weight="bold" font-family="'Helvetica Neue', Arial, sans-serif" font-size="14">2013</text>
<text text-anchor="middle" x="176.52777777777777" y="295" font-weight="bold" font-family="'Helvetica Neue', Arial, sans-serif" font-size="14">2014</text>
<text text-anchor="middle" x="225.91666666666666" y="295" font-weight="bold" font-family="'Helvetica Neue', Arial, sans-serif" font-size="14">2015</text>
<text text-anchor="middle" x="275.30555555555554" y="295" font-weight="bold" font-family="'Helvetica Neue', Arial, sans-serif" font-size="14">2016</text>
<text text-anchor="middle" x="324.69444444444446" y="295" font-weight="bold" font-family="'Helvetica Neue', Arial, sans-serif" font-size="14">2017</text>
<text text-anchor="middle" x="374.0833333333333" y="295" font-weight="bold" font-family="'Helvetica Neue', Arial, sans-serif" font-size="14">2018</text>
<text text-anchor="middle" x="423.4722222222222" y="295" font-weight="bold" font-family="'Helvetica Neue', Arial, sans-serif" font-size="14">2019</text>
<text text-anchor="middle" x="472.8611111111111" y="295" font-weight="bold" font-family="'Helvetica Neue', Arial, sans-serif" font-size="14">2020</text>
<text text-anchor="middle" x="522.25" y="295" font-weight="bold" font-family="'Helvetica Neue', Arial, sans-serif" font-size="14">2021</text>
<polyline points="77.75,266.25 127.13888888888889,254.0746737554374" style="fill:none;stroke:#ba0f27;stroke-width:2.8"  />
<polyline points="127.13888888888889,254.0746737554374 176.52777777777777,240.41807636539392" style="fill:none;stroke:#ba0f27;stroke-width:2.8"  />
<polyline points="176.52777777777777,240.41807636539392 225.91666666666666,239.40647655872402" style="fill:none;stroke:#ba0f27;stroke-width:2.8"  />
<polyline points="225.91666666666666,239.40647655872402 275.30555555555554,228.60403576607064" style="fill:none;stroke:#ba0f27;stroke-width:2.8"  />
<polyline points="275.30555555555554,228.60403576607064 324.69444444444446,210.1423392943451" style="fill:none;stroke:#ba0f27;stroke-width:2.8"  />
<polyline points="324.69444444444446,210.1423392943451 374.0833333333333,188.50132914451427" style="fill:none;stroke:#ba0f27;stroke-width:2.8"  />
<polyline points="374.0833333333333,188.50132914451427 423.4722222222222,172.06283228612864" style="fill:none;stroke:#ba0f27;stroke-width:2.8"  />
<polyline points="423.4722222222222,172.06283228612864 472.8611111111111,160.68233446109238" style="fill:none;stroke:#ba0f27;stroke-width:2.8"  />
<polyline points="472.8611111111111,160.68233446109238 522.25,116.75" style="fill:none;stroke:#ba0f27;stroke-width:2.8"  />
<circle cx="77.75" cy="266.25" r="2.75" stroke="#F7F7F7" stroke-width="2.75" fill="#F7F7F7" />
<circle cx="77.75" cy="266.25" r="2.75" stroke="#ba0f27" stroke-width="2.75" fill="#ba0f27"  />
<circle cx="127.13888888888889" cy="254.0746737554374" r="2.75" stroke="#F7F7F7" stroke-width="2.75" fill="#F7F7F7" />
<circle cx="127.13888888888889" cy="254.0746737554374" r="2.75" stroke="#ba0f27" stroke-width="2.75" fill="#ba0f27"  />
<circle cx="176.52777777777777" cy="240.41807636539392" r="2.75" stroke="#F7F7F7" stroke-width="2.75" fill="#F7F7F7" />
<circle cx="176.52777777777777" cy="240.41807636539392" r="2.75" stroke="#ba0f27" stroke-width="2.75" fill="#ba0f27"  />
<circle cx="225.91666666666666" cy="239.40647655872402" r="2.75" stroke="#F7F7F7" stroke-width="2.75" fill="#F7F7F7" />
<circle cx="225.91666666666666" cy="239.40647655872402" r="2.75" stroke="#ba0f27" stroke-width="2.75" fill="#ba0f27"  />
<circle cx="275.30555555555554" cy="228.60403576607064" r="2.75" stroke="#F7F7F7" stroke-width="2.75" fill="#F7F7F7" />
<circle cx="275.30555555555554" cy="228.60403576607064" r="2.75" stroke="#ba0f27" stroke-width="2.75" fill="#ba0f27"  />
<circle cx="324.69444444444446" cy="210.1423392943451" r="2.75" stroke="#F7F7F7" stroke-width="2.75" fill="#F7F7F7" />
<circle cx="324.69444444444446" cy="210.1423392943451" r="2.75" stroke="#ba0f27" stroke-width="2.75" fill="#ba0f27"  />
<circle cx="374.0833333333333" cy="188.50132914451427" r="2.75" stroke="#F7F7F7" stroke-width="2.75" fill="#F7F7F7" />
<circle cx="374.0833333333333" cy="188.50132914451427" r="2.75" stroke="#ba0f27" stroke-width="2.75" fill="#ba0f27"  />
<circle cx="423.4722222222222" cy="172.06283228612864" r="2.75" stroke="#F7F7F7" stroke-width="2.75" fill="#F7F7F7" />
<circle cx="423.4722222222222" cy="172.06283228612864" r="2.75" stroke="#ba0f27" stroke-width="2.75" fill="#ba0f27"  />
<circle cx="472.8611111111111" cy="160.68233446109238" r="2.75" stroke="#F7F7F7" stroke-width="2.75" fill="#F7F7F7" />
<circle cx="472.8611111111111" cy="160.68233446109238" r="2.75" stroke="#ba0f27" stroke-width="2.75" fill="#ba0f27"  />
<circle cx="522.25" cy="116.75" r="2.75" stroke="#F7F7F7" stroke-width="2.75" fill="#F7F7F7" />
<circle cx="522.25" cy="116.75" r="2.75" stroke="#ba0f27" stroke-width="2.75" fill="#ba0f27"  />
<polyline points="77.75,266.25 127.13888888888889,247.4719133162247" style="fill:none;stroke:#000000;stroke-width:2.8" stroke-dasharray="3,1"  />
<polyline points="127.13888888888889,247.4719133162247 176.52777777777777,233.31907613344737" style="fill:none;stroke:#000000;stroke-width:2.8" stroke-dasharray="3,1"  />
<polyline points="176.52777777777777,233.31907613344737 225.91666666666666,218.59074707727402" style="fill:none;stroke:#000000;stroke-width:2.8" stroke-dasharray="3,1"  />
<polyline points="225.91666666666666,218.59074707727402 275.30555555555554,195.95473339036212" style="fill:none;stroke:#000000;stroke-width:2.8" stroke-dasharray="3,1"  />
<polyline points="275.30555555555554,195.95473339036212 324.69444444444446,183.91203307670372" style="fill:none;stroke:#000000;stroke-width:2.8" stroke-dasharray="3,1"  />
<polyline points="324.69444444444446,183.91203307670372 374.0833333333333,164.7715996578272" style="fill:none;stroke:#000000;stroke-width:2.8" stroke-dasharray="3,1"  />
<polyline points="374.0833333333333,164.7715996578272 423.4722222222222,145.33276304533788" style="fill:none;stroke:#000000;stroke-width:2.8" stroke-dasharray="3,1"  />
<polyline points="423.4722222222222,145.33276304533788 472.8611111111111,130.68969204448246" style="fill:none;stroke:#000000;stroke-width:2.8" stroke-dasharray="3,1"  />
<polyline points="472.8611111111111,130.68969204448246 522.25,116.75" style="fill:none;stroke:#000000;stroke-width:2.8" stroke-dasharray="3,1"  />
<polygon points="74.45,266.25 77.75,262.95 81.05,266.25 77.75,269.55" stroke="#F7F7F7" stroke-width="2.75" fill="#F7F7F7"  />
<polygon points="74.45,266.25 77.75,262.95 81.05,266.25 77.75,269.55" stroke="#000000" stroke-width="2.75" fill="#000000"  />
<polygon points="123.83888888888889,247.4719133162247 127.13888888888889,244.17191331622467 130.4388888888889,247.4719133162247 127.13888888888889,250.7719133162247" stroke="#F7F7F7" stroke-width="2.75" fill="#F7F7F7"  />
<polygon points="123.83888888888889,247.4719133162247 127.13888888888889,244.17191331622467 130.4388888888889,247.4719133162247 127.13888888888889,250.7719133162247" stroke="#000000" stroke-width="2.75" fill="#000000"  />
<polygon points="173.22777777777776,233.31907613344737 176.52777777777777,230.01907613344736 179.82777777777778,233.31907613344737 176.52777777777777,236.61907613344738" stroke="#F7F7F7" stroke-width="2.75" fill="#F7F7F7"  />
<polygon points="173.22777777777776,233.31907613344737 176.52777777777777,230.01907613344736 179.82777777777778,233.31907613344737 176.52777777777777,236.61907613344738" stroke="#000000" stroke-width="2.75" fill="#000000"  />
<polygon points="222.61666666666665,218.59074707727402 225.91666666666666,215.290747077274 229.21666666666667,218.59074707727402 225.91666666666666,221.89074707727403" stroke="#F7F7F7" stroke-width="2.75" fill="#F7F7F7"  />
<polygon points="222.61666666666665,218.59074707727402 225.91666666666666,215.290747077274 229.21666666666667,218.59074707727402 225.91666666666666,221.89074707727403" stroke="#000000" stroke-width="2.75" fill="#000000"  />
<polygon points="272.00555555555553,195.95473339036212 275.30555555555554,192.6547333903621 278.60555555555555,195.95473339036212 275.30555555555554,199.25473339036213" stroke="#F7F7F7" stroke-width="2.75" fill="#F7F7F7"  />
<polygon points="272.00555555555553,195.95473339036212 275.30555555555554,192.6547333903621 278.60555555555555,195.95473339036212 275.30555555555554,199.25473339036213" stroke="#000000" stroke-width="2.75" fill="#000000"  />
<polygon points="321.39444444444445,183.91203307670372 324.69444444444446,180.6120330767037 327.99444444444447,183.91203307670372 324.69444444444446,187.21203307670373" stroke="#F7F7F7" stroke-width="2.75" fill="#F7F7F7"  />
<polygon points="321.39444444444445,183.91203307670372 324.69444444444446,180.6120330767037 327.99444444444447,183.91203307670372 324.69444444444446,187.21203307670373" stroke="#000000" stroke-width="2.75" fill="#000000"  />
<polygon points="370.7833333333333,164.7715996578272 374.0833333333333,161.4715996578272 377.3833333333333,164.7715996578272 374.0833333333333,168.07159965782722" stroke="#F7F7F7" stroke-width="2.75" fill="#F7F7F7"  />
<polygon points="370.7833333333333,164.7715996578272 374.0833333333333,161.4715996578272 377.3833333333333,164.7715996578272 374.0833333333333,168.07159965782722" stroke="#000000" stroke-width="2.75" fill="#000000"  />
<polygon points="420.17222222222216,145.33276304533788 423.4722222222222,142.03276304533787 426.7722222222222,145.33276304533788 423.4722222222222,148.6327630453379" stroke="#F7F7F7" stroke-width="2.75" fill="#F7F7F7"  />
<polygon points="420.17222222222216,145.33276304533788 423.4722222222222,142.03276304533787 426.7722222222222,145.33276304533788 423.4722222222222,148.6327630453379" stroke="#000000" stroke-width="2.75" fill="#000000"  />
<polygon points="469.5611111111111,130.68969204448246 472.8611111111111,127.38969204448246 476.1611111111111,130.68969204448246 472.8611111111111,133.98969204448247" stroke="#F7F7F7" stroke-width="2.75" fill="#F7F7F7"  />
<polygon points="469.5611111111111,130.68969204448246 472.8611111111111,127.38969204448246 476.1611111111111,130.68969204448246 472.8611111111111,133.98969204448247" stroke="#000000" stroke-width="2.75" fill="#000000"  />
<polygon points="518.95,116.75 522.25,113.45 525.55,116.75 522.25,120.05" stroke="#F7F7F7" stroke-width="2.75" fill="#F7F7F7"  />
<polygon points="518.95,116.75 522.25,113.45 525.55,116.75 522.25,120.05" stroke="#000000" stroke-width="2.75" fill="#000000"  />
</svg>