<svg width="600" height="392" xmlns="http://www.w3.org/2000/svg"> <rect width="100%" height="100%" fill="#FEFEFE" />
<line x1="70" y1="252" x2="530" y2="252" stroke="#9f9f9f" stroke-width="1" />
<rect x="70" y="87" width="460" height="165" fill="#FEFEFE" />
<text text-anchor="middle" x="300.0" y="20" font-family="'Helvetica Neue', Arial, sans-serif" font-weight="bold" font-size="22" fill="#000000">The distance between Jupiter and the Sun</text>
<text text-anchor="middle" x="300.0" y="42" font-family="'Helvetica Neue', Arial, sans-serif" font-size="14" fill="#000000">correlates with</text>
<text text-anchor="middle" x="300.0" y="68" font-family="'Helvetica Neue', Arial, sans-serif" font-weight="bold" font-size="22" fill="#ba0f27">The number of secretaries in Alaska</text>
<text text-anchor="start" x="23" y="297.3333333333333" font-family="'Helvetica Neue', Arial, sans-serif" font-size="14" fill="#9f9f9f">The average distance between Jupiter and the Sun as measured on the first day of</text>
<text text-anchor="start" x="23" y="313.3333333333333" font-family="'Helvetica Neue', Arial, sans-serif" font-size="14" fill="#9f9f9f">each month &#183; Source: Caclculated using Astropy</text>
<text text-anchor="start" x="23" y="336.66666666666663" font-family="'Helvetica Neue', Arial, sans-serif" font-size="14" fill="#9f9f9f">BLS estimate of secretaries and administrative assistants, except legal, medical,</text>
<text text-anchor="start" x="23" y="352.66666666666663" font-family="'Helvetica Neue', Arial, sans-serif" font-size="14" fill="#9f9f9f">and executive in Alaska &#183; Source: Bureau of Larbor Statistics</text>
<text text-anchor="start" x="23" y="375.99999999999994" font-family="'Helvetica Neue', Arial, sans-serif" font-size="14" fill="#9f9f9f">2010-2022, r=0.950, r&#178;=0.902, p&lt;0.01  &#183;  tylervigen.com/spurious/correlation/2733</text>
<polyline points="5,292.66666666666663 20,292.66666666666663" style="fill:none;stroke:#000000;stroke-width:2.8" stroke-dasharray="3,1" />
<polygon points="1.7000000000000002,292.66666666666663 5,289.3666666666666 8.3,292.66666666666663 5,295.96666666666664" stroke="#F7F7F7" stroke-width="2.75" fill="#F7F7F7"  />
<polygon points="1.7000000000000002,292.66666666666663 5,289.3666666666666 8.3,292.66666666666663 5,295.96666666666664" stroke="#000000" stroke-width="2.75" fill="#000000"  />
<polyline points="5,331.99999999999994 20,331.99999999999994" style="fill:none;stroke:#ba0f27;stroke-width:2.8" />
<circle cx="5" cy="331.99999999999994" r="2.75" stroke="#F7F7F7" stroke-width="2.75" fill="#F7F7F7" />
<circle cx="5" cy="331.99999999999994" r="2.75" stroke="#ba0f27" stroke-width="2.75" fill="#ba0f27"  />
<text x="5" y="174.5" transform="rotate(270 5 169.5)" text-anchor="middle" fill="#000000" font-family="'Helvetica Neue', Arial, sans-serif" font-size="14" dominant-baseline="central">Planetary distance (AU)</text>
<text x="169.5" y="-389" transform="rotate(90 100 100)" text-anchor="middle" fill="#ba0f27" font-family="'Helvetica Neue', Arial, sans-serif" font-size="14" dominant-baseline="central">Laborers</text>
<line x1="71" y1="94.75" x2="528" y2="94.75" stroke="#F3F3F3" stroke-width="1" fill="#FEFEFE" />
<text text-anchor="end" x="62" y="99.41666666666667" font-family="'Helvetica Neue', Arial, sans-serif" font-size="12" fill="#000000">5.45</text>
<text text-anchor="start" x="538" y="99.41666666666667" font-family="'Helvetica Neue', Arial, sans-serif" font-size="12" fill="#ba0f27">7.2K</text>
<line x1="71" y1="132.125" x2="528" y2="132.125" stroke="#F3F3F3" stroke-width="1" fill="#FEFEFE" />
<text text-anchor="end" x="62" y="136.79166666666666" font-family="'Helvetica Neue', Arial, sans-serif" font-size="12">5.33</text>
<text text-anchor="start" x="538" y="136.79166666666666" font-family="'Helvetica Neue', Arial, sans-serif" font-size="12" fill="#ba0f27">6.3K</text>
<line x1="71" y1="169.5" x2="528" y2="169.5" stroke="#F3F3F3" stroke-width="1" fill="#FEFEFE" />
<text text-anchor="end" x="62" y="174.16666666666666" font-family="'Helvetica Neue', Arial, sans-serif" font-size="12">5.2</text>
<text text-anchor="start" x="538" y="174.16666666666666" font-family="'Helvetica Neue', Arial, sans-serif" font-size="12" fill="#ba0f27">5.3K</text>
<line x1="71" y1="206.875" x2="528" y2="206.875" stroke="#F3F3F3" stroke-width="1" fill="#FEFEFE" />
<text text-anchor="end" x="62" y="211.54166666666666" font-family="'Helvetica Neue', Arial, sans-serif" font-size="12">5.08</text>
<text text-anchor="start" x="538" y="211.54166666666666" font-family="'Helvetica Neue', Arial, sans-serif" font-size="12" fill="#ba0f27">4.4K</text>
<line x1="71" y1="244.25" x2="528" y2="244.25" stroke="#F3F3F3" stroke-width="1" fill="#FEFEFE" />
<text text-anchor="end" x="62" y="248.91666666666666" font-family="'Helvetica Neue', Arial, sans-serif" font-size="12">4.95</text>
<text text-anchor="start" x="538" y="248.91666666666666" font-family="'Helvetica Neue', Arial, sans-serif" font-size="12" fill="#ba0f27">3.5K</text>
<polyline points="77.75,252 77.75,258" style="fill:none;stroke:#000000;stroke-width:1" />
<polyline points="151.83333333333331,252 151.83333333333331,258" style="fill:none;stroke:#000000;stroke-width:1" />
<polyline points="225.91666666666666,252 225.91666666666666,258" style="fill:none;stroke:#000000;stroke-width:1" />
<polyline points="300.0,252 300.0,258" style="fill:none;stroke:#000000;stroke-width:1" />
<polyline points="374.0833333333333,252 374.0833333333333,258" style="fill:none;stroke:#000000;stroke-width:1" />
<polyline points="448.16666666666663,252 448.16666666666663,258" style="fill:none;stroke:#000000;stroke-width:1" />
<polyline points="522.25,252 522.25,258" style="fill:none;stroke:#000000;stroke-width:1" />
<text text-anchor="middle" x="77.75" y="273" font-weight="bold" font-family="'Helvetica Neue', Arial, sans-serif" font-size="14">2010</text>
<text text-anchor="middle" x="151.83333333333331" y="273" font-weight="bold" font-family="'Helvetica Neue', Arial, sans-serif" font-size="14">2012</text>
<text text-anchor="middle" x="225.91666666666666" y="273" font-weight="bold" font-family="'Helvetica Neue', Arial, sans-serif" font-size="14">2014</text>
<text text-anchor="middle" x="300.0" y="273" font-weight="bold" font-family="'Helvetica Neue', Arial, sans-serif" font-size="14">2016</text>
<text text-anchor="middle" x="374.0833333333333" y="273" font-weight="bold" font-family="'Helvetica Neue', Arial, sans-serif" font-size="14">2018</text>
<text text-anchor="middle" x="448.16666666666663" y="273" font-weight="bold" font-family="'Helvetica Neue', Arial, sans-serif" font-size="14">2020</text>
<text text-anchor="middle" x="522.25" y="273" font-weight="bold" font-family="'Helvetica Neue', Arial, sans-serif" font-size="14">2022</text>
<polyline points="77.75,244.25 114.79166666666666,223.47479564032696" style="fill:none;stroke:#ba0f27;stroke-width:2.8"  />
<polyline points="114.79166666666666,223.47479564032696 151.83333333333331,194.9598092643052" style="fill:none;stroke:#ba0f27;stroke-width:2.8"  />
<polyline points="151.83333333333331,194.9598092643052 188.875,174.9993188010899" style="fill:none;stroke:#ba0f27;stroke-width:2.8"  />
<polyline points="188.875,174.9993188010899 225.91666666666666,146.891689373297" style="fill:none;stroke:#ba0f27;stroke-width:2.8"  />
<polyline points="225.91666666666666,146.891689373297 262.9583333333333,115.11784741144415" style="fill:none;stroke:#ba0f27;stroke-width:2.8"  />
<polyline points="262.9583333333333,115.11784741144415 300.0,105.34128065395095" style="fill:none;stroke:#ba0f27;stroke-width:2.8"  />
<polyline points="300.0,105.34128065395095 337.04166666666663,94.75" style="fill:none;stroke:#ba0f27;stroke-width:2.8"  />
<polyline points="337.04166666666663,94.75 374.0833333333333,113.08106267029973" style="fill:none;stroke:#ba0f27;stroke-width:2.8"  />
<polyline points="374.0833333333333,113.08106267029973 411.125,167.25953678474116" style="fill:none;stroke:#ba0f27;stroke-width:2.8"  />
<polyline points="411.125,167.25953678474116 448.16666666666663,205.55108991825614" style="fill:none;stroke:#ba0f27;stroke-width:2.8"  />
<polyline points="448.16666666666663,205.55108991825614 485.2083333333333,224.69686648501363" style="fill:none;stroke:#ba0f27;stroke-width:2.8"  />
<polyline points="485.2083333333333,224.69686648501363 522.25,215.32765667574932" style="fill:none;stroke:#ba0f27;stroke-width:2.8"  />
<circle cx="77.75" cy="244.25" r="2.75" stroke="#F7F7F7" stroke-width="2.75" fill="#F7F7F7" />
<circle cx="77.75" cy="244.25" r="2.75" stroke="#ba0f27" stroke-width="2.75" fill="#ba0f27"  />
<circle cx="114.79166666666666" cy="223.47479564032696" r="2.75" stroke="#F7F7F7" stroke-width="2.75" fill="#F7F7F7" />
<circle cx="114.79166666666666" cy="223.47479564032696" r="2.75" stroke="#ba0f27" stroke-width="2.75" fill="#ba0f27"  />
<circle cx="151.83333333333331" cy="194.9598092643052" r="2.75" stroke="#F7F7F7" stroke-width="2.75" fill="#F7F7F7" />
<circle cx="151.83333333333331" cy="194.9598092643052" r="2.75" stroke="#ba0f27" stroke-width="2.75" fill="#ba0f27"  />
<circle cx="188.875" cy="174.9993188010899" r="2.75" stroke="#F7F7F7" stroke-width="2.75" fill="#F7F7F7" />
<circle cx="188.875" cy="174.9993188010899" r="2.75" stroke="#ba0f27" stroke-width="2.75" fill="#ba0f27"  />
<circle cx="225.91666666666666" cy="146.891689373297" r="2.75" stroke="#F7F7F7" stroke-width="2.75" fill="#F7F7F7" />
<circle cx="225.91666666666666" cy="146.891689373297" r="2.75" stroke="#ba0f27" stroke-width="2.75" fill="#ba0f27"  />
<circle cx="262.9583333333333" cy="115.11784741144415" r="2.75" stroke="#F7F7F7" stroke-width="2.75" fill="#F7F7F7" />
<circle cx="262.9583333333333" cy="115.11784741144415" r="2.75" stroke="#ba0f27" stroke-width="2.75" fill="#ba0f27"  />
<circle cx="300.0" cy="105.34128065395095" r="2.75" stroke="#F7F7F7" stroke-width="2.75" fill="#F7F7F7" />
<circle cx="300.0" cy="105.34128065395095" r="2.75" stroke="#ba0f27" stroke-width="2.75" fill="#ba0f27"  />
<circle cx="337.04166666666663" cy="94.75" r="2.75" stroke="#F7F7F7" stroke-width="2.75" fill="#F7F7F7" />
<circle cx="337.04166666666663" cy="94.75" r="2.75" stroke="#ba0f27" stroke-width="2.75" fill="#ba0f27"  />
<circle cx="374.0833333333333" cy="113.08106267029973" r="2.75" stroke="#F7F7F7" stroke-width="2.75" fill="#F7F7F7" />
<circle cx="374.0833333333333" cy="113.08106267029973" r="2.75" stroke="#ba0f27" stroke-width="2.75" fill="#ba0f27"  />
<circle cx="411.125" cy="167.25953678474116" r="2.75" stroke="#F7F7F7" stroke-width="2.75" fill="#F7F7F7" />
<circle cx="411.125" cy="167.25953678474116" r="2.75" stroke="#ba0f27" stroke-width="2.75" fill="#ba0f27"  />
<circle cx="448.16666666666663" cy="205.55108991825614" r="2.75" stroke="#F7F7F7" stroke-width="2.75" fill="#F7F7F7" />
<circle cx="448.16666666666663" cy="205.55108991825614" r="2.75" stroke="#ba0f27" stroke-width="2.75" fill="#ba0f27"  />
<circle cx="485.2083333333333" cy="224.69686648501363" r="2.75" stroke="#F7F7F7" stroke-width="2.75" fill="#F7F7F7" />
<circle cx="485.2083333333333" cy="224.69686648501363" r="2.75" stroke="#ba0f27" stroke-width="2.75" fill="#ba0f27"  />
<circle cx="522.25" cy="215.32765667574932" r="2.75" stroke="#F7F7F7" stroke-width="2.75" fill="#F7F7F7" />
<circle cx="522.25" cy="215.32765667574932" r="2.75" stroke="#ba0f27" stroke-width="2.75" fill="#ba0f27"  />
<polyline points="77.75,238.51425131480863 114.79166666666666,244.25" style="fill:none;stroke:#000000;stroke-width:2.8" stroke-dasharray="3,1"  />
<polyline points="114.79166666666666,244.25 151.83333333333331,227.52474963225677" style="fill:none;stroke:#000000;stroke-width:2.8" stroke-dasharray="3,1"  />
<polyline points="151.83333333333331,227.52474963225677 188.875,194.0862987889659" style="fill:none;stroke:#000000;stroke-width:2.8" stroke-dasharray="3,1"  />
<polyline points="188.875,194.0862987889659 225.91666666666666,154.4301035726522" style="fill:none;stroke:#000000;stroke-width:2.8" stroke-dasharray="3,1"  />
<polyline points="225.91666666666666,154.4301035726522 262.9583333333333,119.57880286940575" style="fill:none;stroke:#000000;stroke-width:2.8" stroke-dasharray="3,1"  />
<polyline points="262.9583333333333,119.57880286940575 300.0,98.06070788079084" style="fill:none;stroke:#000000;stroke-width:2.8" stroke-dasharray="3,1"  />
<polyline points="300.0,98.06070788079084 337.04166666666663,94.75" style="fill:none;stroke:#000000;stroke-width:2.8" stroke-dasharray="3,1"  />
<polyline points="337.04166666666663,94.75 374.0833333333333,110.27929856731234" style="fill:none;stroke:#000000;stroke-width:2.8" stroke-dasharray="3,1"  />
<polyline points="374.0833333333333,110.27929856731234 411.125,141.21137183388078" style="fill:none;stroke:#000000;stroke-width:2.8" stroke-dasharray="3,1"  />
<polyline points="411.125,141.21137183388078 448.16666666666663,180.28917222479697" style="fill:none;stroke:#000000;stroke-width:2.8" stroke-dasharray="3,1"  />
<polyline points="448.16666666666663,180.28917222479697 485.2083333333333,216.94795675741028" style="fill:none;stroke:#000000;stroke-width:2.8" stroke-dasharray="3,1"  />
<polyline points="485.2083333333333,216.94795675741028 522.25,240.2042486952668" style="fill:none;stroke:#000000;stroke-width:2.8" stroke-dasharray="3,1"  />
<polygon points="74.45,238.51425131480863 77.75,235.21425131480862 81.05,238.51425131480863 77.75,241.81425131480864" stroke="#F7F7F7" stroke-width="2.75" fill="#F7F7F7"  />
<polygon points="74.45,238.51425131480863 77.75,235.21425131480862 81.05,238.51425131480863 77.75,241.81425131480864" stroke="#000000" stroke-width="2.75" fill="#000000"  />
<polygon points="111.49166666666666,244.25 114.79166666666666,240.95 118.09166666666665,244.25 114.79166666666666,247.55" stroke="#F7F7F7" stroke-width="2.75" fill="#F7F7F7"  />
<polygon points="111.49166666666666,244.25 114.79166666666666,240.95 118.09166666666665,244.25 114.79166666666666,247.55" stroke="#000000" stroke-width="2.75" fill="#000000"  />
<polygon points="148.5333333333333,227.52474963225677 151.83333333333331,224.22474963225676 155.13333333333333,227.52474963225677 151.83333333333331,230.82474963225678" stroke="#F7F7F7" stroke-width="2.75" fill="#F7F7F7"  />
<polygon points="148.5333333333333,227.52474963225677 151.83333333333331,224.22474963225676 155.13333333333333,227.52474963225677 151.83333333333331,230.82474963225678" stroke="#000000" stroke-width="2.75" fill="#000000"  />
<polygon points="185.575,194.0862987889659 188.875,190.7862987889659 192.175,194.0862987889659 188.875,197.38629878896592" stroke="#F7F7F7" stroke-width="2.75" fill="#F7F7F7"  />
<polygon points="185.575,194.0862987889659 188.875,190.7862987889659 192.175,194.0862987889659 188.875,197.38629878896592" stroke="#000000" stroke-width="2.75" fill="#000000"  />
<polygon points="222.61666666666665,154.4301035726522 225.91666666666666,151.1301035726522 229.21666666666667,154.4301035726522 225.91666666666666,157.7301035726522" stroke="#F7F7F7" stroke-width="2.75" fill="#F7F7F7"  />
<polygon points="222.61666666666665,154.4301035726522 225.91666666666666,151.1301035726522 229.21666666666667,154.4301035726522 225.91666666666666,157.7301035726522" stroke="#000000" stroke-width="2.75" fill="#000000"  />
<polygon points="259.6583333333333,119.57880286940575 262.9583333333333,116.27880286940575 266.2583333333333,119.57880286940575 262.9583333333333,122.87880286940575" stroke="#F7F7F7" stroke-width="2.75" fill="#F7F7F7"  />
<polygon points="259.6583333333333,119.57880286940575 262.9583333333333,116.27880286940575 266.2583333333333,119.57880286940575 262.9583333333333,122.87880286940575" stroke="#000000" stroke-width="2.75" fill="#000000"  />
<polygon points="296.7,98.06070788079084 300.0,94.76070788079085 303.3,98.06070788079084 300.0,101.36070788079084" stroke="#F7F7F7" stroke-width="2.75" fill="#F7F7F7"  />
<polygon points="296.7,98.06070788079084 300.0,94.76070788079085 303.3,98.06070788079084 300.0,101.36070788079084" stroke="#000000" stroke-width="2.75" fill="#000000"  />
<polygon points="333.7416666666666,94.75 337.04166666666663,91.45 340.34166666666664,94.75 337.04166666666663,98.05" stroke="#F7F7F7" stroke-width="2.75" fill="#F7F7F7"  />
<polygon points="333.7416666666666,94.75 337.04166666666663,91.45 340.34166666666664,94.75 337.04166666666663,98.05" stroke="#000000" stroke-width="2.75" fill="#000000"  />
<polygon points="370.7833333333333,110.27929856731234 374.0833333333333,106.97929856731234 377.3833333333333,110.27929856731234 374.0833333333333,113.57929856731234" stroke="#F7F7F7" stroke-width="2.75" fill="#F7F7F7"  />
<polygon points="370.7833333333333,110.27929856731234 374.0833333333333,106.97929856731234 377.3833333333333,110.27929856731234 374.0833333333333,113.57929856731234" stroke="#000000" stroke-width="2.75" fill="#000000"  />
<polygon points="407.825,141.21137183388078 411.125,137.91137183388076 414.425,141.21137183388078 411.125,144.5113718338808" stroke="#F7F7F7" stroke-width="2.75" fill="#F7F7F7"  />
<polygon points="407.825,141.21137183388078 411.125,137.91137183388076 414.425,141.21137183388078 411.125,144.5113718338808" stroke="#000000" stroke-width="2.75" fill="#000000"  />
<polygon points="444.8666666666666,180.28917222479697 448.16666666666663,176.98917222479696 451.46666666666664,180.28917222479697 448.16666666666663,183.58917222479698" stroke="#F7F7F7" stroke-width="2.75" fill="#F7F7F7"  />
<polygon points="444.8666666666666,180.28917222479697 448.16666666666663,176.98917222479696 451.46666666666664,180.28917222479697 448.16666666666663,183.58917222479698" stroke="#000000" stroke-width="2.75" fill="#000000"  />
<polygon points="481.9083333333333,216.94795675741028 485.2083333333333,213.64795675741027 488.5083333333333,216.94795675741028 485.2083333333333,220.2479567574103" stroke="#F7F7F7" stroke-width="2.75" fill="#F7F7F7"  />
<polygon points="481.9083333333333,216.94795675741028 485.2083333333333,213.64795675741027 488.5083333333333,216.94795675741028 485.2083333333333,220.2479567574103" stroke="#000000" stroke-width="2.75" fill="#000000"  />
<polygon points="518.95,240.2042486952668 522.25,236.9042486952668 525.55,240.2042486952668 522.25,243.50424869526682" stroke="#F7F7F7" stroke-width="2.75" fill="#F7F7F7"  />
<polygon points="518.95,240.2042486952668 522.25,236.9042486952668 525.55,240.2042486952668 522.25,243.50424869526682" stroke="#000000" stroke-width="2.75" fill="#000000"  />
</svg>